<svg id="settings" width="50" height="50" viewBox="0 0 50 50" fill="none" xmlns="http://www.w3.org/2000/svg">
<path d="M38.2146 15.8031C39.5171 17.6711 40.4337 19.8283 40.8487 22.1591H45.8333V27.8409H40.8487C40.4337 30.1717 39.5171 32.3289 38.2146 34.1969L41.7402 37.7226L37.7226 41.7402L34.1969 38.2146C32.3289 39.5171 30.1717 40.4336 27.8409 40.8486V45.8333H22.1591V40.8486C19.8283 40.4336 17.6712 39.5171 15.8031 38.2146L12.2774 41.7402L8.25979 37.7226L11.7854 34.1969C10.4829 32.3289 9.56638 30.1717 9.15139 27.8409H4.16667V22.1591H9.15139C9.56638 19.8283 10.4829 17.6711 11.7854 15.8031L8.25979 12.2774L12.2774 8.25978L15.8031 11.7854C17.6712 10.4829 19.8283 9.56637 22.1591 9.15138V4.16666H27.8409V9.15138C30.1717 9.56637 32.3289 10.4829 34.1969 11.7854L37.7226 8.25978L41.7402 12.2774L38.2146 15.8031Z" stroke="currentColor" stroke-width="5" stroke-linejoin="round"/>
<path d="M25 30.2083C27.8765 30.2083 30.2083 27.8765 30.2083 25C30.2083 22.1235 27.8765 19.7917 25 19.7917C22.1235 19.7917 19.7917 22.1235 19.7917 25C19.7917 27.8765 22.1235 30.2083 25 30.2083Z" stroke="currentColor" stroke-width="5" stroke-linejoin="round"/>
</svg>
