<svg width="78" height="79" viewBox="0 0 78 79" fill="none" xmlns="http://www.w3.org/2000/svg">
<path d="M39 52.4492C46.1517 52.4492 51.9492 46.6517 51.9492 39.5C51.9492 32.3483 46.1517 26.5508 39 26.5508C31.8483 26.5508 26.0508 32.3483 26.0508 39.5C26.0508 46.6517 31.8483 52.4492 39 52.4492Z" fill="#F2B635"/>
<path d="M21.8849 35.7542C23.6052 27.8879 30.625 21.9805 38.9999 21.9805H73.8655C72.0156 18.3079 69.5694 14.9151 66.5772 11.9227C59.2109 4.55676 49.4172 0.5 38.9999 0.5C28.5827 0.5 18.789 4.55676 11.4227 11.9227C10.7143 12.6311 10.0373 13.3624 9.39087 14.114L21.8849 35.7542Z" fill="#F2B635"/>
<path d="M44.3138 56.1949C42.6371 56.7298 40.8517 57.0196 39 57.0196C32.4922 57.0196 26.8021 53.4526 23.7812 48.1711C23.7595 48.1378 23.7381 48.1046 23.7179 48.0698L6.40011 18.0744C2.23656 24.3814 0 31.7686 0 39.5C0 49.9173 4.05676 59.711 11.4227 67.0773C17.066 72.7204 24.1348 76.4184 31.8164 77.841L44.3138 56.1949Z" fill="#F2B635"/>
<path d="M50.7882 26.5508C54.3075 29.7573 56.5195 34.3752 56.5195 39.5C56.5195 42.7233 55.6435 45.7453 54.1186 48.3426C54.103 48.3725 54.0896 48.4028 54.0727 48.4322L36.7512 78.4342C37.4972 78.4762 38.2468 78.5 39 78.5C49.4172 78.5 59.211 74.4432 66.5772 67.0773C73.9432 59.711 78 49.9173 78 39.5C78 35.0202 77.2477 30.6564 75.8068 26.5508H50.7882Z" fill="#F2B635"/>
</svg>
