<svg width="82" height="79" viewBox="0 0 82 79" fill="none" xmlns="http://www.w3.org/2000/svg">
<path d="M57.0464 0.5C64.9645 5.85154 69.5257 19.9643 69.5257 30.6368C69.5257 33.3636 69.167 36.024 68.5264 38.5061C67.9524 32.3034 64.7441 26.8449 59.9676 23.2976C62.607 26.8398 64.1753 31.2026 64.1753 35.9527C64.1753 47.6904 54.5864 57.2263 42.7835 57.2263C38.007 57.2263 35.6546 56.3038 32.0876 53.679C39.3241 53.679 43.7778 46.5895 49.9124 46.5895C49.9124 46.5895 49.0257 43.0422 44.567 43.0422C40.1082 43.0422 42.2146 46.5895 33.8711 46.5895C25.5276 46.5895 21.3917 41.5896 21.3917 37.7263C21.3917 33.863 27.1676 31.0599 28.5206 32.4105C29.7353 31.2026 28.5206 28.8632 28.5206 28.8632L39.2216 21.7737C39.2216 21.7737 37.4381 21.7737 35.6546 21.7737C19.8235 21.7737 28.9153 10.7444 32.0876 7.58952C26.4194 7.58952 22.8524 12.8034 21.3866 14.679C20.4949 14.256 14.2577 14.256 12.4742 14.679C11.6901 14.8574 10.5883 13.4762 9.553 11.5599C8.27175 9.14911 7.12888 5.9229 7.12888 4.04221C2.6035 8.5477 3.38762 15.2855 5.17112 17.9409C5.09937 18.0123 5.02763 18.1193 4.99175 18.2263C1.81937 24.006 0 30.6725 0 37.7263C0 60.2385 18.3629 78.5 41 78.5C63.6371 78.5 82 62.0121 82 39.5C82 39.1076 82 36.3451 82 35.9527C82 14.9033 68.4546 3.8995 57.0464 0.5Z" fill="#F19A2A"/>
</svg>
