<svg width="84" height="83" viewBox="0 0 84 83" fill="none" xmlns="http://www.w3.org/2000/svg">
<path fill-rule="evenodd" clip-rule="evenodd" d="M38.2662 0.155122C30.445 0.852626 22.8398 3.87785 16.3405 8.87668C13.1765 11.3102 9.0675 15.8835 6.69297 19.6142C5.66746 21.2254 3.6712 25.3083 2.95607 27.2567C2.15649 29.4355 1.30429 32.7651 0.884929 35.3486C0.37169 38.5107 0.37169 44.5145 0.884929 47.6766C1.30429 50.2601 2.15649 53.5896 2.95607 55.7684C3.6712 57.7169 5.66746 61.7997 6.69297 63.411C10.0084 68.62 14.8604 73.4659 20.0761 76.7771C21.6894 77.8013 25.7775 79.795 27.7284 80.5092C36.1486 83.5912 45.6651 83.8227 54.0606 81.1498C56.6812 80.3154 56.7207 80.244 54.671 80.047C52.1451 79.804 48.14 78.8461 45.2157 77.7856C31.6802 72.8769 21.8746 61.6752 19.2852 48.1632C18.2234 42.6226 18.4583 37.3277 20.0156 31.6989C23.3269 19.729 32.8772 9.71109 45.2443 5.23506C48.2078 4.16237 52.1357 3.22203 54.671 2.97823C56.7207 2.78114 56.6812 2.70977 54.0606 1.87536C49.0786 0.28927 43.534 -0.314639 38.2662 0.155122ZM57.2697 7.86741C51.2237 8.57919 47.7082 9.55862 43.1394 11.8046L40.9467 12.8825L42.5709 12.9918C44.6944 13.1347 46.1738 13.3873 47.7614 13.878C56.0381 16.4355 62.5862 24.4714 64.6624 34.6187C67.238 47.2067 62.494 60.335 53.11 66.5884C49.9294 68.7078 46.7306 69.7534 42.5709 70.0334L40.9467 70.1427L43.1394 71.2225C46.8943 73.0717 50.6111 74.2345 54.8334 74.8812C57.233 75.2486 62.8919 75.2465 65.348 74.8773L67.011 74.6273L68.2715 73.609C71.2864 71.1732 74.9478 67.05 77.1313 63.6321C80.2101 58.8128 82.3344 53.032 83.2031 47.1088C83.599 44.4102 83.599 38.615 83.2031 35.9163C81.877 26.8744 77.8747 18.8145 71.5624 12.474C70.4458 11.3523 68.9647 9.97631 68.271 9.41587C67.0113 8.398 67.0082 8.3967 65.4287 8.16864C63.8597 7.94203 58.3603 7.73894 57.2697 7.86741Z" fill="#F25648"/>
</svg>
