<svg width="84" height="91" viewBox="0 0 84 91" fill="none" xmlns="http://www.w3.org/2000/svg">
<path fill-rule="evenodd" clip-rule="evenodd" d="M30.6993 0.91942C29.4884 1.35005 27.851 3.02148 27.8077 3.87079C27.7234 5.52289 28.2018 6.42228 29.4945 7.04128C29.9749 7.27134 30.368 7.52911 30.368 7.61427C30.368 7.69943 29.4115 8.08176 28.2425 8.46409C20.5262 10.9879 12.9151 16.7022 7.80994 23.8041C4.90513 27.8452 2.04108 34.2417 1.00025 39.0127C-2.08098 53.1355 2.05095 67.613 12.0912 77.8723C23.3976 89.4256 40.0698 93.4396 55.3859 88.2959C70.5516 83.2028 81.5808 69.7409 83.6414 53.8092C85.3692 40.4497 80.7936 27.2868 71.1985 18.0145C64.9014 11.9292 57.7245 8.27547 48.9769 6.70141C46.3034 6.22044 40.0805 5.9853 37.7718 6.27815C36.7623 6.40627 35.9366 6.46347 35.9366 6.40551C35.9366 6.34729 36.1715 5.96878 36.4583 5.56408C38.7326 2.35647 35.0373 -0.624137 30.6993 0.91942ZM34.9971 2.32037C35.7071 2.70194 35.9298 3.57311 35.5223 4.37412C35.1828 5.04117 35.1105 5.06277 33.7097 4.91559C32.373 4.77526 32.1808 4.82153 31.419 5.46544L30.5872 6.16808L29.9081 5.66093C29.0072 4.98804 28.9148 4.1677 29.6512 3.37686C31.016 1.91134 33.3703 1.44589 34.9971 2.32037ZM45.5618 16.5192C54.7865 17.6227 62.6821 22.3287 68.0386 29.916C69.4391 31.8999 71.1775 35.2043 71.8888 37.235C72.1336 37.934 72.4097 38.6929 72.5021 38.9209C72.633 39.244 72.0475 39.7171 69.8631 41.0545C68.319 41.9994 67.0084 42.8499 66.9502 42.9443C66.8922 43.0388 68.3413 43.3116 70.1704 43.5505C71.9997 43.7895 73.5432 44.032 73.6004 44.0895C73.6576 44.1472 73.7652 45.3892 73.8393 46.8502C74.5352 60.5419 65.9182 73.5942 53.0759 78.3014C51.949 78.7145 51.0072 79.0524 50.9831 79.0524C50.9588 79.0524 50.3346 78.0515 49.5955 76.828C48.8564 75.6048 48.0181 74.2638 47.7325 73.8484L47.2131 73.0934L46.7676 76.4927C46.5226 78.3622 46.2677 79.9467 46.2009 80.0138C46.1343 80.0806 44.7804 80.193 43.1923 80.2634C30.9261 80.8072 19.3682 74.0033 13.7135 62.9101C12.5909 60.7079 11.307 57.4372 11.4921 57.2511C11.5554 57.1878 12.8868 56.3515 14.4508 55.3929C16.0779 54.3956 17.1404 53.5992 16.9339 53.5316C16.7355 53.4665 15.2175 53.2357 13.5611 53.0183C11.9044 52.8012 10.4806 52.5546 10.3971 52.4705C10.029 52.1009 10.2708 44.3096 10.716 42.1921C13.0862 30.9143 21.0076 21.7191 31.4228 18.1558L33.11 17.5785L34.8399 20.4722C35.7911 22.0638 36.6325 23.3694 36.7094 23.3732C36.7864 23.3773 36.9904 22.2079 37.163 20.7749C37.692 16.3809 37.6298 16.5584 38.6832 16.4463C40.6108 16.2414 43.4948 16.2721 45.5618 16.5192ZM54.9905 33.1386L46.5808 39.5795L45.1188 39.1087C44.3147 38.8497 43.366 38.583 43.0103 38.5159C42.4535 38.4112 42.0677 37.7688 40.226 33.8807L38.0882 29.3669L37.9315 31.2674C37.8452 32.3125 37.7599 34.5582 37.7416 36.2578L37.7085 39.348L36.4034 40.3251C35.6858 40.8625 34.9596 41.4071 34.79 41.5349C34.5905 41.6857 33.5776 41.4541 31.9186 40.8783C30.509 40.3889 29.3555 40.0529 29.3555 40.1314C29.3555 40.21 30.2184 41.146 31.2732 42.2116L33.191 44.149L32.7919 45.1081C32.5724 45.6356 32.393 46.3883 32.393 46.7808C32.393 47.173 32.2421 47.6453 32.0576 47.8302C31.8731 48.0147 29.798 49.0811 27.4465 50.1996L23.1708 52.2333L24.6812 52.3963C25.5119 52.486 27.7578 52.5719 29.6719 52.5869C31.7708 52.6037 33.1523 52.714 33.1523 52.865C33.1523 53.0028 30.4034 56.7493 27.0435 61.1904C23.6839 65.6317 20.8077 69.4369 20.6522 69.6466C20.2964 70.1271 19.5183 70.7021 29.0308 63.4551C33.3766 60.144 37.1033 57.3693 37.3123 57.2888C37.5214 57.2082 38.18 57.3172 38.7761 57.5313C39.3722 57.7453 40.2622 57.9856 40.754 58.0649C41.6341 58.2072 41.6809 58.2794 43.8165 62.7761L45.9855 67.3427L46.15 64.642C46.2404 63.1567 46.3146 60.8749 46.3146 59.5716C46.3146 57.2611 46.3318 57.1914 47.0106 56.7692C47.3934 56.531 48.0836 55.9849 48.5443 55.5558L49.3819 54.7754L52.0465 55.7175C55.0401 56.776 55.0343 56.7984 52.4603 54.1256L50.8555 52.4593L51.2428 51.5284C51.4557 51.0162 51.6301 50.3171 51.6301 49.9744C51.6301 49.6317 51.6908 49.1925 51.7652 48.998C51.8394 48.8035 53.9461 47.6786 56.4467 46.4986L60.9932 44.3528L58.5266 44.1919C57.1699 44.1037 54.8799 44.0178 53.4381 44.0013C51.194 43.9758 50.8381 43.9153 50.9654 43.5818C51.0755 43.294 58.9402 32.7622 63.3457 27.0031C63.4794 26.8284 63.5462 26.6881 63.4943 26.6914C63.4427 26.695 59.6158 29.596 54.9905 33.1386ZM44.36 40.2415L45.3163 40.5397L42.1803 42.9265C39.3991 45.0438 38.7761 45.6684 36.6692 48.4555L34.2939 51.5975L33.9955 50.7716C33.8314 50.3171 33.6884 49.2347 33.6778 48.3663C33.6332 44.7031 36.0548 41.3717 39.5623 40.27C40.8715 39.8589 43.0913 39.8457 44.36 40.2415ZM50.1233 46.1681C50.5467 47.4575 50.2999 50.1846 49.6157 51.7762C48.8445 53.5694 46.856 55.4239 44.9161 56.1588C43.694 56.6217 43.0382 56.7112 41.5005 56.6253C38.3195 56.4471 38.3306 56.3634 41.8976 53.6625C44.724 51.522 45.2677 50.9755 47.2607 48.271C48.4805 46.6155 49.5553 45.257 49.6487 45.252C49.7423 45.2469 49.9559 45.6592 50.1233 46.1681Z" fill="#00A0E6"/>
</svg>
