<svg width="27" height="30" viewBox="0 0 27 30" fill="none" xmlns="http://www.w3.org/2000/svg">
<path d="M22.1271 28.4643C20.4529 30.008 18.625 29.7643 16.8654 29.033C15.0033 28.2855 13.295 28.253 11.3304 29.033C8.87042 30.0405 7.57208 29.748 6.10292 28.4643C-2.23375 20.2905 -1.00375 7.84303 8.46042 7.38803C10.7667 7.50178 12.3725 8.59053 13.7221 8.68803C15.7379 8.29803 17.6683 7.17678 19.8208 7.32303C22.4004 7.51803 24.3479 8.49303 25.6292 10.248C20.2992 13.2868 21.5633 19.9655 26.4492 21.8343C25.4754 24.2718 24.2113 26.693 22.11 28.4805L22.1271 28.4643ZM13.5513 7.29053C13.295 3.66678 16.3871 0.676777 19.9404 0.384277C20.4358 4.57678 15.9429 7.69678 13.5513 7.29053Z" fill="white"/>
</svg>
