<svg width="25" height="28" viewBox="0 0 25 28" fill="none" xmlns="http://www.w3.org/2000/svg">
<g clip-path="url(#clip0_598_2568)">
<path d="M18.4388 18.1357C21.6087 16.3794 24.0117 15.0411 24.2188 14.9371C24.8814 14.5815 25.5657 13.6405 24.2188 12.9095C23.784 12.6796 21.4427 11.383 18.4388 9.71088L14.2745 13.9545L18.4388 18.1356V18.1357Z" fill="#FFD900"/>
<path d="M14.2745 13.9545L1.01504 27.439C1.32627 27.4806 1.67764 27.3973 2.09189 27.1675C2.96162 26.6871 12.1815 21.6065 18.4388 18.1366L14.2745 13.9545Z" fill="#F43249"/>
<path d="M14.2745 13.9545L18.4388 9.73174C18.4388 9.73174 3.02451 1.24339 2.0919 0.742312C1.74053 0.532323 1.34678 0.469947 0.994434 0.532323L14.2745 13.9545Z" fill="#00EE76"/>
<path d="M14.2745 13.9545L0.994434 0.532349C0.455469 0.658086 0 1.13857 0 2.12121V25.8502C0 26.7495 0.352441 27.3973 1.01504 27.4598L14.2745 13.9545Z" fill="#00D3FF"/>
</g>
<defs>
<clipPath id="clip0_598_2568">
<rect width="25" height="27" fill="white" transform="translate(0 0.509277)"/>
</clipPath>
</defs>
</svg>
