<svg width="27" height="27" viewBox="0 0 27 27" fill="none" xmlns="http://www.w3.org/2000/svg">
<path d="M3.646 9.00965C3.646 7.71365 4.15851 6.47072 5.07078 5.5543C5.98305 4.63788 7.22036 4.12305 8.5105 4.12305H18.2395C19.5296 4.12305 20.7669 4.63788 21.6792 5.5543C22.5915 6.47072 23.104 7.71365 23.104 9.00965V18.7829C23.104 20.0789 22.5915 21.3218 21.6792 22.2382C20.7669 23.1546 19.5296 23.6695 18.2395 23.6695H8.5105C7.22036 23.6695 5.98305 23.1546 5.07078 22.2382C4.15851 21.3218 3.646 20.0789 3.646 18.7829V9.00965Z" stroke="black" stroke-width="1.5" stroke-linecap="round" stroke-linejoin="round"/>
<path d="M9.7266 13.8964C9.7266 14.8684 10.111 15.8006 10.7952 16.4879C11.4794 17.1752 12.4074 17.5614 13.375 17.5614C14.3426 17.5614 15.2706 17.1752 15.9548 16.4879C16.639 15.8006 17.0233 14.8684 17.0233 13.8964C17.0233 12.9244 16.639 11.9922 15.9548 11.3049C15.2706 10.6176 14.3426 10.2314 13.375 10.2314C12.4074 10.2314 11.4794 10.6176 10.7952 11.3049C10.111 11.9922 9.7266 12.9244 9.7266 13.8964Z" stroke="black" stroke-width="1.5" stroke-linecap="round" stroke-linejoin="round"/>
</svg>
