<svg width="55" height="36" viewBox="0 0 55 36" fill="none" xmlns="http://www.w3.org/2000/svg">
<path d="M21.138 27.4433L3.65083 0.292908H13.9938C14.6284 0.294714 15.2524 0.455457 15.8089 0.76046C16.3653 1.06546 16.8365 1.50501 17.1794 2.03896L27.3625 17.86L21.138 27.4433Z" fill="url(#paint0_linear_969_475)"/>
<path d="M26.4561 35.7471L21.1247 27.4833L37.4789 2.03896C37.8218 1.50501 38.293 1.06546 38.8494 0.76046C39.4059 0.455457 40.0299 0.294714 40.6644 0.292908H51.0341L28.2022 35.7471H26.4561Z" fill="#00902A"/>
<path d="M54.6328 35.7071L45.5294 21.5787L36.4926 35.7071H54.6328Z" fill="#A3A3A7"/>
<path d="M18.179 35.7071L9.07558 21.5787L0.0387726 35.7071H18.179Z" fill="#A3A3A7"/>
<defs>
<linearGradient id="paint0_linear_969_475" x1="25.7897" y1="23.8713" x2="17.5659" y2="12.5286" gradientUnits="userSpaceOnUse">
<stop stop-color="#5EB043"/>
<stop offset="1" stop-color="#79B957"/>
</linearGradient>
</defs>
</svg>
