<svg width="18" height="18" viewBox="0 0 18 18" fill="none" xmlns="http://www.w3.org/2000/svg">
<path d="M17.8089 16.7481L13.3293 12.2685C14.5494 10.7762 15.1492 8.8721 15.0048 6.94997C14.8604 5.02784 13.9827 3.23475 12.5532 1.9416C11.1238 0.648448 9.25209 -0.0458375 7.32514 0.00235056C5.39819 0.0505386 3.56348 0.837514 2.2005 2.2005C0.837514 3.56348 0.0505386 5.39819 0.00235056 7.32514C-0.0458375 9.25209 0.648448 11.1238 1.9416 12.5532C3.23475 13.9827 5.02784 14.8604 6.94997 15.0048C8.8721 15.1492 10.7762 14.5494 12.2685 13.3293L16.7481 17.8089C16.8912 17.9368 17.0779 18.0051 17.2698 17.9997C17.4617 17.9943 17.6442 17.9157 17.78 17.78C17.9157 17.6442 17.9943 17.4617 17.9997 17.2698C18.0051 17.0779 17.9368 16.8912 17.8089 16.7481ZM7.52433 13.5263C6.33647 13.5268 5.17512 13.175 4.18722 12.5154C3.19931 11.8559 2.42924 10.9181 1.9744 9.82073C1.51957 8.7234 1.40042 7.51581 1.63202 6.35074C1.86363 5.18568 2.43558 4.11547 3.27553 3.27553C4.11547 2.43558 5.18568 1.86363 6.35074 1.63202C7.51581 1.40042 8.7234 1.51957 9.82073 1.9744C10.9181 2.42924 11.8559 3.19931 12.5154 4.18722C13.175 5.17512 13.5268 6.33647 13.5263 7.52433C13.524 9.11546 12.891 10.6408 11.7659 11.7659C10.6408 12.891 9.11546 13.524 7.52433 13.5263Z" fill="#7A7A95"/>
</svg>
