<svg width="26" height="27" viewBox="0 0 26 27" fill="none" xmlns="http://www.w3.org/2000/svg">
<path d="M23.0608 3.87012C23.0487 3.87012 23.0367 3.87041 23.0246 3.87099C22.7636 3.88361 22.5075 3.94624 22.2702 4.05537L2.70588 11.6017L2.70586 11.6017L2.69778 11.6049C2.31533 11.7575 1.98231 11.943 1.72701 12.1674C1.47722 12.3869 1.24158 12.6994 1.19945 13.1022C1.15413 13.5355 1.34976 13.8948 1.6118 14.1385C1.85781 14.3673 2.17911 14.517 2.51227 14.615L7.39469 16.159C7.53885 16.2065 7.69178 16.2214 7.84246 16.2026C7.99441 16.1836 8.14015 16.1308 8.26899 16.0481L15.3381 11.5882L10.3663 16.078C10.2591 16.1646 10.171 16.2728 10.1078 16.3958C10.0361 16.5356 9.99869 16.6904 9.99869 16.8475C9.99869 17.0046 10.0361 17.1594 10.1078 17.2991C10.1785 17.4368 10.2805 17.556 10.4056 17.6471L18.3591 23.5211C18.3848 23.5401 18.4116 23.5573 18.4394 23.5728C18.9939 23.8821 19.6652 24.067 20.2961 23.7823C20.9292 23.4965 21.2421 22.8644 21.3798 22.2055C21.3799 22.2051 21.38 22.2046 21.38 22.2042L24.7126 6.49696C24.8776 5.81956 24.8339 5.17211 24.5167 4.66197C24.1866 4.13106 23.6333 3.87012 23.0608 3.87012Z" stroke="black" stroke-width="1.5" stroke-linecap="round" stroke-linejoin="round"/>
</svg>
